<?xml version="1.0" encoding="utf-8"?>
<!-- Generator: Adobe Illustrator 21.0.0, SVG Export Plug-In . SVG Version: 6.00 Build 0)  -->
<svg version="1.1" id="圖層_1" xmlns="http://www.w3.org/2000/svg" xmlns:xlink="http://www.w3.org/1999/xlink" x="0px" y="0px"
	 viewBox="0 0 1920 1080" style="enable-background:new 0 0 1920 1080;" xml:space="preserve">
<style type="text/css">
	.st0{fill:#006F67;}
</style>
<g>
	<g>
		<g>
			<path class="st0" d="M954.9,497.4c0,0-0.1-0.3-0.2-0.4c0.2-0.1,0.3-0.3,0.3-0.5c0-0.3-0.3-0.6-0.6-0.6h-1v1.9h0.4v-0.7h0.4
				c0,0,0.1,0,0.2,0.4c0.1,0.2,0.1,0.3,0.2,0.4h0.4C955,497.6,954.9,497.4,954.9,497.4z M953.9,496.3h0.6c0.1,0,0.2,0.1,0.2,0.2
				c0,0.1-0.1,0.2-0.2,0.2h-0.6V496.3z"/>
			<path class="st0" d="M954.2,495.2c-1,0-1.7,0.8-1.7,1.7c0,1,0.8,1.7,1.7,1.7c1,0,1.7-0.8,1.7-1.7
				C956,495.9,955.2,495.2,954.2,495.2z M954.2,498.4c-0.8,0-1.5-0.7-1.5-1.5c0-0.8,0.7-1.5,1.5-1.5c0.8,0,1.5,0.7,1.5,1.5
				C955.7,497.7,955.1,498.4,954.2,498.4z"/>
		</g>
	</g>
	<path class="st0" d="M905.8,497.1c0,0.7,0,34.2,0,34.9c-0.4,0-1.1,0-1.5,0c0-0.7,0-17.7,0-17.7H898c0,0,0,17,0,17.7
		c-0.4,0-1.1,0-1.5,0c0-0.7,0-34.2,0-34.9c0.4,0,1.1,0,1.5,0c0,0.7,0,15.9,0,15.9h6.2c0,0,0-15.3,0-15.9
		C904.6,497.1,905.3,497.1,905.8,497.1z"/>
	<path class="st0" d="M913.4,497.1c0,0.7,0,34.2,0,34.9c-0.4,0-1.1,0-1.5,0c0-0.7,0-34.2,0-34.9C912.2,497.1,913,497.1,913.4,497.1z
		"/>
	<path class="st0" d="M919.4,528.8v-28.5c0-2.3,1.6-3.7,4-3.7c2.4,0,4,1.5,4,3.7c0,0,0,6.3,0,7c-0.4,0-1.1,0-1.5,0c0-0.6,0-7,0-7
		c0-1.4-1-2.4-2.5-2.4c-1.5,0-2.5,1-2.5,2.4v28.6c0,1.4,1,2.4,2.5,2.4c1.5,0,2.5-1,2.5-2.4c0,0,0-6.7,0-7.3c0.4,0,1.1,0,1.5,0
		c0,0.6,0,7.4,0,7.4c0,2.3-1.6,3.7-4,3.7C920.9,532.6,919.4,531.1,919.4,528.8z"/>
	<path class="st0" d="M933,531.4v-33.7c0-0.3,0.3-0.6,0.6-0.6c0,0,5,0,5.6,0c0,0.4,0,0.9,0,1.3c-0.6,0-4.7,0-4.7,0V513
		c0,0,4.1,0,4.7,0c0,0.4,0,0.9,0,1.3c-0.6,0-4.7,0-4.7,0v16.4c0,0,4.1,0,4.7,0c0,0.4,0,0.9,0,1.3c-0.6,0-5.6,0-5.6,0
		C933.3,532,933,531.7,933,531.4z"/>
	<path class="st0" d="M944.4,531.4v-33.7c0-0.3,0.3-0.6,0.6-0.6c0,0,5,0,5.6,0c0,0.4,0,0.9,0,1.3c-0.6,0-4.7,0-4.7,0V513
		c0,0,4.1,0,4.7,0c0,0.4,0,0.9,0,1.3c-0.6,0-4.7,0-4.7,0v16.4c0,0,4.1,0,4.7,0c0,0.4,0,0.9,0,1.3c-0.6,0-5.6,0-5.6,0
		C944.7,532,944.4,531.7,944.4,531.4z"/>
</g>
</svg>
